<svg preserveAspectRatio="none" overflow="visible" style="display: block;" width="9.6" height="9.6" viewBox="0 0 9.6 9.6" fill="none" xmlns="http://www.w3.org/2000/svg">
<g id="WhatsappLogo">
<path id="Vector" d="M2.7002 3.90005C2.7002 3.58179 2.82662 3.27656 3.05167 3.05152C3.27671 2.82648 3.58194 2.70005 3.9002 2.70005L4.5002 3.90005L4.0382 4.59267C4.22146 5.03058 4.56967 5.37879 5.00757 5.56205L5.7002 5.10005L6.9002 5.70005C6.9002 6.01831 6.77377 6.32353 6.54872 6.54858C6.32368 6.77362 6.01845 6.90005 5.7002 6.90005C4.90455 6.90005 4.14148 6.58398 3.57887 6.02137C3.01627 5.45876 2.7002 4.6957 2.7002 3.90005Z" stroke="black" stroke-width="0.6" stroke-linecap="round" stroke-linejoin="round"/>
<path id="Vector_2" d="M2.99723 7.91658C3.75343 8.35423 4.64299 8.50194 5.50005 8.33217C6.35711 8.16239 7.12318 7.68672 7.65543 6.99383C8.18768 6.30095 8.44979 5.43814 8.39287 4.56628C8.33596 3.69442 7.96391 2.87301 7.3461 2.2552C6.72829 1.63739 5.90688 1.26535 5.03502 1.20843C4.16316 1.15152 3.30036 1.41362 2.60747 1.94587C1.91459 2.47812 1.43891 3.24419 1.26914 4.10126C1.09936 4.95832 1.24707 5.84788 1.68473 6.60408L1.2156 8.0047C1.19798 8.05756 1.19542 8.11428 1.20822 8.16851C1.22101 8.22275 1.24866 8.27234 1.28806 8.31174C1.32746 8.35114 1.37706 8.37879 1.43129 8.39159C1.48552 8.40439 1.54224 8.40183 1.5951 8.3842L2.99723 7.91658Z" stroke="black" stroke-width="0.6" stroke-linecap="round" stroke-linejoin="round"/>
</g>
</svg>
